# xmcd
#
# Track frame offsets:
#	150
#	30062
#	56434
#	103742
#	155940
#	201185
#
# Disc length: 3327 seconds
#
# Revision: 1
# Processed by: cddbd v1.5.2PL0 Copyright (c) Steve Scherf et al.
# Submitted via: audiograbber 1.83.01
#
DISCID=470cfd06
DTITLE=Grateful Dead - 80-12-12 Swing Auditorium, San Bernardino CA
DYEAR=1900
DGENRE=
TTITLE0=China Cat Sunflower
TTITLE1=I Know You Rider
TTITLE2=Estimated Prophet
TTITLE3=He's Gone
TTITLE4=Eyes Of The World
TTITLE5=Drums
EXTD=
EXTT0=
EXTT1=
EXTT2=
EXTT3=
EXTT4=
EXTT5=
PLAYORDER=
